<mxfile host="app.diagrams.net" modified="2024-06-09T15:36:55.397Z" agent="Mozilla/5.0 (Windows NT 10.0; Win64; x64) AppleWebKit/537.36 (KHTML, like Gecko) Chrome/125.0.0.0 Safari/537.36" etag="gFSnmKSgPCkYoMEfe4w9" version="24.4.4" type="device">
  <diagram name="Seite-1" id="F3MyI2wZZVtehvdA1s-B">
    <mxGraphModel dx="2074" dy="1132" grid="1" gridSize="10" guides="1" tooltips="1" connect="1" arrows="1" fold="1" page="1" pageScale="1" pageWidth="1169" pageHeight="827" math="0" shadow="0">
      <root>
        <mxCell id="0" />
        <mxCell id="1" parent="0" />
        <mxCell id="Sz9_V8I0TWF33BEzIcY6-1" value="Studierender" style="shape=umlActor;verticalLabelPosition=bottom;verticalAlign=top;html=1;outlineConnect=0;" vertex="1" parent="1">
          <mxGeometry x="335" y="79" width="30" height="60" as="geometry" />
        </mxCell>
        <mxCell id="Sz9_V8I0TWF33BEzIcY6-6" value="&amp;lt;&amp;lt;boundary&amp;gt;&amp;gt;&lt;div&gt;SucheDialog&lt;/div&gt;" style="html=1;whiteSpace=wrap;" vertex="1" parent="1">
          <mxGeometry x="485" y="219" width="110" height="50" as="geometry" />
        </mxCell>
        <mxCell id="Sz9_V8I0TWF33BEzIcY6-7" value="&amp;lt;&amp;lt;boundary&amp;gt;&amp;gt;&lt;div&gt;Ergebnisseite&lt;/div&gt;" style="html=1;whiteSpace=wrap;" vertex="1" parent="1">
          <mxGeometry x="215" y="219" width="110" height="50" as="geometry" />
        </mxCell>
        <mxCell id="Sz9_V8I0TWF33BEzIcY6-12" value="" style="endArrow=none;html=1;rounded=0;entryX=0.5;entryY=0;entryDx=0;entryDy=0;edgeStyle=orthogonalEdgeStyle;" edge="1" parent="1" source="Sz9_V8I0TWF33BEzIcY6-1" target="Sz9_V8I0TWF33BEzIcY6-6">
          <mxGeometry width="50" height="50" relative="1" as="geometry">
            <mxPoint x="435" y="79" as="sourcePoint" />
            <mxPoint x="915" y="339" as="targetPoint" />
            <Array as="points">
              <mxPoint x="540" y="109" />
            </Array>
          </mxGeometry>
        </mxCell>
        <mxCell id="Sz9_V8I0TWF33BEzIcY6-14" value="&amp;lt;&amp;lt;dto&amp;gt;&amp;gt;&lt;div&gt;SucheArbeitgeber&lt;/div&gt;" style="html=1;whiteSpace=wrap;" vertex="1" parent="1">
          <mxGeometry x="695" y="297" width="110" height="50" as="geometry" />
        </mxCell>
        <mxCell id="Sz9_V8I0TWF33BEzIcY6-15" value="&amp;lt;&amp;lt;dto&amp;gt;&amp;gt;&lt;div&gt;SucheFachrichtung&lt;/div&gt;" style="html=1;whiteSpace=wrap;" vertex="1" parent="1">
          <mxGeometry x="695" y="219" width="110" height="50" as="geometry" />
        </mxCell>
        <mxCell id="Sz9_V8I0TWF33BEzIcY6-16" value="&amp;lt;&amp;lt;dto&amp;gt;&amp;gt;&lt;div&gt;AuftragFreitextsuche&lt;/div&gt;" style="html=1;whiteSpace=wrap;" vertex="1" parent="1">
          <mxGeometry x="695" y="139" width="120" height="50" as="geometry" />
        </mxCell>
        <mxCell id="Sz9_V8I0TWF33BEzIcY6-17" value="&amp;lt;&amp;lt;control&amp;gt;&amp;gt;&lt;div&gt;Jobangebot_suchen&lt;/div&gt;" style="html=1;whiteSpace=wrap;" vertex="1" parent="1">
          <mxGeometry x="475" y="429" width="130" height="50" as="geometry" />
        </mxCell>
        <mxCell id="Sz9_V8I0TWF33BEzIcY6-18" value="" style="endArrow=none;html=1;rounded=0;exitX=0.5;exitY=0;exitDx=0;exitDy=0;edgeStyle=orthogonalEdgeStyle;" edge="1" parent="1" source="Sz9_V8I0TWF33BEzIcY6-7" target="Sz9_V8I0TWF33BEzIcY6-1">
          <mxGeometry width="50" height="50" relative="1" as="geometry">
            <mxPoint x="735" y="459" as="sourcePoint" />
            <mxPoint x="785" y="409" as="targetPoint" />
            <Array as="points">
              <mxPoint x="270" y="109" />
            </Array>
          </mxGeometry>
        </mxCell>
        <mxCell id="Sz9_V8I0TWF33BEzIcY6-19" value="" style="endArrow=open;dashed=1;html=1;rounded=0;exitX=0.5;exitY=0;exitDx=0;exitDy=0;entryX=0.5;entryY=1;entryDx=0;entryDy=0;startArrow=none;startFill=0;endFill=0;" edge="1" parent="1" source="Sz9_V8I0TWF33BEzIcY6-17" target="Sz9_V8I0TWF33BEzIcY6-6">
          <mxGeometry width="50" height="50" relative="1" as="geometry">
            <mxPoint x="735" y="459" as="sourcePoint" />
            <mxPoint x="785" y="409" as="targetPoint" />
          </mxGeometry>
        </mxCell>
        <mxCell id="Sz9_V8I0TWF33BEzIcY6-20" value="initiiert" style="text;html=1;align=center;verticalAlign=middle;resizable=0;points=[];autosize=1;strokeColor=none;fillColor=none;" vertex="1" parent="1">
          <mxGeometry x="535" y="369" width="60" height="30" as="geometry" />
        </mxCell>
        <mxCell id="Sz9_V8I0TWF33BEzIcY6-21" value="" style="endArrow=open;dashed=1;html=1;rounded=0;exitX=0.75;exitY=0;exitDx=0;exitDy=0;entryX=0;entryY=0.5;entryDx=0;entryDy=0;edgeStyle=orthogonalEdgeStyle;endFill=0;" edge="1" parent="1" source="Sz9_V8I0TWF33BEzIcY6-6" target="Sz9_V8I0TWF33BEzIcY6-16">
          <mxGeometry width="50" height="50" relative="1" as="geometry">
            <mxPoint x="735" y="459" as="sourcePoint" />
            <mxPoint x="785" y="409" as="targetPoint" />
          </mxGeometry>
        </mxCell>
        <mxCell id="Sz9_V8I0TWF33BEzIcY6-23" value="" style="endArrow=open;dashed=1;html=1;rounded=0;exitX=1;exitY=0.5;exitDx=0;exitDy=0;entryX=0;entryY=0.5;entryDx=0;entryDy=0;edgeStyle=orthogonalEdgeStyle;endFill=0;" edge="1" parent="1" source="Sz9_V8I0TWF33BEzIcY6-6" target="Sz9_V8I0TWF33BEzIcY6-15">
          <mxGeometry width="50" height="50" relative="1" as="geometry">
            <mxPoint x="578" y="229" as="sourcePoint" />
            <mxPoint x="705" y="174" as="targetPoint" />
          </mxGeometry>
        </mxCell>
        <mxCell id="Sz9_V8I0TWF33BEzIcY6-24" value="" style="endArrow=open;dashed=1;html=1;rounded=0;exitX=0.75;exitY=1;exitDx=0;exitDy=0;entryX=0;entryY=0.5;entryDx=0;entryDy=0;edgeStyle=orthogonalEdgeStyle;endFill=0;" edge="1" parent="1" source="Sz9_V8I0TWF33BEzIcY6-6" target="Sz9_V8I0TWF33BEzIcY6-14">
          <mxGeometry width="50" height="50" relative="1" as="geometry">
            <mxPoint x="588" y="239" as="sourcePoint" />
            <mxPoint x="715" y="184" as="targetPoint" />
          </mxGeometry>
        </mxCell>
        <mxCell id="Sz9_V8I0TWF33BEzIcY6-25" value="erstellt" style="text;html=1;align=center;verticalAlign=middle;resizable=0;points=[];autosize=1;strokeColor=none;fillColor=none;" vertex="1" parent="1">
          <mxGeometry x="595" y="137" width="60" height="30" as="geometry" />
        </mxCell>
        <mxCell id="Sz9_V8I0TWF33BEzIcY6-26" value="erstellt" style="text;html=1;align=center;verticalAlign=middle;resizable=0;points=[];autosize=1;strokeColor=none;fillColor=none;" vertex="1" parent="1">
          <mxGeometry x="595" y="217" width="60" height="30" as="geometry" />
        </mxCell>
        <mxCell id="Sz9_V8I0TWF33BEzIcY6-27" value="erstellt" style="text;html=1;align=center;verticalAlign=middle;resizable=0;points=[];autosize=1;strokeColor=none;fillColor=none;" vertex="1" parent="1">
          <mxGeometry x="595" y="297" width="60" height="30" as="geometry" />
        </mxCell>
        <mxCell id="Sz9_V8I0TWF33BEzIcY6-28" value="" style="endArrow=open;dashed=1;html=1;rounded=0;exitX=1;exitY=0.5;exitDx=0;exitDy=0;entryX=1;entryY=0.5;entryDx=0;entryDy=0;edgeStyle=orthogonalEdgeStyle;endFill=0;" edge="1" parent="1" source="Sz9_V8I0TWF33BEzIcY6-17" target="Sz9_V8I0TWF33BEzIcY6-14">
          <mxGeometry width="50" height="50" relative="1" as="geometry">
            <mxPoint x="735" y="459" as="sourcePoint" />
            <mxPoint x="785" y="409" as="targetPoint" />
            <Array as="points">
              <mxPoint x="835" y="454" />
              <mxPoint x="835" y="322" />
            </Array>
          </mxGeometry>
        </mxCell>
        <mxCell id="Sz9_V8I0TWF33BEzIcY6-30" value="" style="endArrow=open;dashed=1;html=1;rounded=0;exitX=1;exitY=0.5;exitDx=0;exitDy=0;entryX=1;entryY=0.5;entryDx=0;entryDy=0;edgeStyle=orthogonalEdgeStyle;endFill=0;" edge="1" parent="1" source="Sz9_V8I0TWF33BEzIcY6-17" target="Sz9_V8I0TWF33BEzIcY6-15">
          <mxGeometry width="50" height="50" relative="1" as="geometry">
            <mxPoint x="735" y="459" as="sourcePoint" />
            <mxPoint x="785" y="409" as="targetPoint" />
            <Array as="points">
              <mxPoint x="835" y="454" />
              <mxPoint x="835" y="244" />
            </Array>
          </mxGeometry>
        </mxCell>
        <mxCell id="Sz9_V8I0TWF33BEzIcY6-31" value="" style="endArrow=open;dashed=1;html=1;rounded=0;exitX=1;exitY=0.5;exitDx=0;exitDy=0;entryX=1;entryY=0.5;entryDx=0;entryDy=0;edgeStyle=orthogonalEdgeStyle;endFill=0;" edge="1" parent="1" source="Sz9_V8I0TWF33BEzIcY6-17" target="Sz9_V8I0TWF33BEzIcY6-16">
          <mxGeometry width="50" height="50" relative="1" as="geometry">
            <mxPoint x="735" y="459" as="sourcePoint" />
            <mxPoint x="785" y="409" as="targetPoint" />
            <Array as="points">
              <mxPoint x="835" y="454" />
              <mxPoint x="835" y="164" />
            </Array>
          </mxGeometry>
        </mxCell>
        <mxCell id="Sz9_V8I0TWF33BEzIcY6-32" value="erhÃ¤lt" style="text;html=1;align=center;verticalAlign=middle;resizable=0;points=[];autosize=1;strokeColor=none;fillColor=none;" vertex="1" parent="1">
          <mxGeometry x="835" y="399" width="50" height="30" as="geometry" />
        </mxCell>
        <mxCell id="Sz9_V8I0TWF33BEzIcY6-33" value="&amp;lt;&amp;lt;dto&amp;gt;&amp;gt;&lt;div&gt;Ergebnisliste&lt;/div&gt;" style="html=1;whiteSpace=wrap;" vertex="1" parent="1">
          <mxGeometry x="215" y="429" width="110" height="50" as="geometry" />
        </mxCell>
        <mxCell id="Sz9_V8I0TWF33BEzIcY6-34" value="&amp;lt;&amp;lt;dto&amp;gt;&amp;gt;&lt;div&gt;JobTreffer&lt;/div&gt;" style="html=1;whiteSpace=wrap;" vertex="1" parent="1">
          <mxGeometry x="215" y="559" width="110" height="50" as="geometry" />
        </mxCell>
        <mxCell id="Sz9_V8I0TWF33BEzIcY6-35" value="" style="endArrow=none;html=1;endSize=12;startArrow=diamondThin;startSize=14;startFill=0;edgeStyle=orthogonalEdgeStyle;align=left;verticalAlign=bottom;rounded=0;entryX=0.5;entryY=0;entryDx=0;entryDy=0;endFill=0;exitX=0.5;exitY=1;exitDx=0;exitDy=0;" edge="1" parent="1" source="Sz9_V8I0TWF33BEzIcY6-33" target="Sz9_V8I0TWF33BEzIcY6-34">
          <mxGeometry x="-1" y="3" relative="1" as="geometry">
            <mxPoint x="285" y="499" as="sourcePoint" />
            <mxPoint x="835" y="539" as="targetPoint" />
          </mxGeometry>
        </mxCell>
        <mxCell id="Sz9_V8I0TWF33BEzIcY6-37" value="" style="endArrow=open;dashed=1;html=1;rounded=0;exitX=0.5;exitY=1;exitDx=0;exitDy=0;entryX=0.5;entryY=0;entryDx=0;entryDy=0;endFill=0;" edge="1" parent="1" source="Sz9_V8I0TWF33BEzIcY6-7" target="Sz9_V8I0TWF33BEzIcY6-33">
          <mxGeometry width="50" height="50" relative="1" as="geometry">
            <mxPoint x="735" y="559" as="sourcePoint" />
            <mxPoint x="785" y="509" as="targetPoint" />
          </mxGeometry>
        </mxCell>
        <mxCell id="Sz9_V8I0TWF33BEzIcY6-38" value="stellt_dar" style="text;html=1;align=center;verticalAlign=middle;resizable=0;points=[];autosize=1;strokeColor=none;fillColor=none;" vertex="1" parent="1">
          <mxGeometry x="265" y="339" width="70" height="30" as="geometry" />
        </mxCell>
        <mxCell id="Sz9_V8I0TWF33BEzIcY6-39" value="" style="endArrow=none;dashed=1;html=1;rounded=0;exitX=1;exitY=0.5;exitDx=0;exitDy=0;entryX=0;entryY=0.5;entryDx=0;entryDy=0;startArrow=open;startFill=0;" edge="1" parent="1" source="Sz9_V8I0TWF33BEzIcY6-33" target="Sz9_V8I0TWF33BEzIcY6-17">
          <mxGeometry width="50" height="50" relative="1" as="geometry">
            <mxPoint x="735" y="559" as="sourcePoint" />
            <mxPoint x="785" y="509" as="targetPoint" />
          </mxGeometry>
        </mxCell>
        <mxCell id="Sz9_V8I0TWF33BEzIcY6-40" value="produziert" style="text;html=1;align=center;verticalAlign=middle;resizable=0;points=[];autosize=1;strokeColor=none;fillColor=none;" vertex="1" parent="1">
          <mxGeometry x="345" y="427" width="80" height="30" as="geometry" />
        </mxCell>
        <mxCell id="Sz9_V8I0TWF33BEzIcY6-41" value="" style="endArrow=none;dashed=1;html=1;rounded=0;exitX=1;exitY=0.5;exitDx=0;exitDy=0;entryX=0.25;entryY=0;entryDx=0;entryDy=0;edgeStyle=orthogonalEdgeStyle;startArrow=open;startFill=0;" edge="1" parent="1" source="Sz9_V8I0TWF33BEzIcY6-7" target="Sz9_V8I0TWF33BEzIcY6-17">
          <mxGeometry width="50" height="50" relative="1" as="geometry">
            <mxPoint x="735" y="559" as="sourcePoint" />
            <mxPoint x="785" y="509" as="targetPoint" />
            <Array as="points">
              <mxPoint x="435" y="244" />
              <mxPoint x="435" y="369" />
              <mxPoint x="508" y="369" />
            </Array>
          </mxGeometry>
        </mxCell>
        <mxCell id="Sz9_V8I0TWF33BEzIcY6-42" value="initiiert" style="text;html=1;align=center;verticalAlign=middle;resizable=0;points=[];autosize=1;strokeColor=none;fillColor=none;" vertex="1" parent="1">
          <mxGeometry x="365" y="217" width="60" height="30" as="geometry" />
        </mxCell>
        <mxCell id="Sz9_V8I0TWF33BEzIcY6-43" value="&amp;lt;&amp;lt;control&amp;gt;&amp;gt;&lt;div&gt;Verwaltung_von_Suchanfragen&lt;/div&gt;" style="html=1;whiteSpace=wrap;" vertex="1" parent="1">
          <mxGeometry x="805" y="537" width="180" height="50" as="geometry" />
        </mxCell>
        <mxCell id="Sz9_V8I0TWF33BEzIcY6-44" value="" style="endArrow=open;dashed=1;html=1;rounded=0;exitX=0.75;exitY=1;exitDx=0;exitDy=0;entryX=0;entryY=0.5;entryDx=0;entryDy=0;edgeStyle=orthogonalEdgeStyle;endFill=0;" edge="1" parent="1" source="Sz9_V8I0TWF33BEzIcY6-17" target="Sz9_V8I0TWF33BEzIcY6-43">
          <mxGeometry width="50" height="50" relative="1" as="geometry">
            <mxPoint x="735" y="559" as="sourcePoint" />
            <mxPoint x="785" y="509" as="targetPoint" />
          </mxGeometry>
        </mxCell>
        <mxCell id="Sz9_V8I0TWF33BEzIcY6-45" value="" style="endArrow=open;dashed=1;html=1;rounded=0;exitX=0;exitY=0.75;exitDx=0;exitDy=0;entryX=0;entryY=0.5;entryDx=0;entryDy=0;edgeStyle=orthogonalEdgeStyle;endFill=0;" edge="1" parent="1" source="Sz9_V8I0TWF33BEzIcY6-7" target="Sz9_V8I0TWF33BEzIcY6-34">
          <mxGeometry width="50" height="50" relative="1" as="geometry">
            <mxPoint x="735" y="559" as="sourcePoint" />
            <mxPoint x="785" y="509" as="targetPoint" />
            <Array as="points">
              <mxPoint x="185" y="257" />
              <mxPoint x="185" y="584" />
            </Array>
          </mxGeometry>
        </mxCell>
        <mxCell id="Sz9_V8I0TWF33BEzIcY6-46" value="markeirt" style="text;html=1;align=center;verticalAlign=middle;resizable=0;points=[];autosize=1;strokeColor=none;fillColor=none;" vertex="1" parent="1">
          <mxGeometry x="110" y="399" width="70" height="30" as="geometry" />
        </mxCell>
        <mxCell id="Sz9_V8I0TWF33BEzIcY6-47" value="&amp;lt;&amp;lt;entity&amp;gt;&amp;gt;&lt;div&gt;Studierender-Objekt&lt;/div&gt;" style="html=1;whiteSpace=wrap;" vertex="1" parent="1">
          <mxGeometry x="390" y="699" width="120" height="50" as="geometry" />
        </mxCell>
        <mxCell id="Sz9_V8I0TWF33BEzIcY6-48" value="&amp;lt;entity&amp;gt;&amp;gt;&lt;div&gt;Jobangebot&lt;/div&gt;" style="html=1;whiteSpace=wrap;" vertex="1" parent="1">
          <mxGeometry x="395" y="559" width="110" height="50" as="geometry" />
        </mxCell>
        <mxCell id="Sz9_V8I0TWF33BEzIcY6-49" value="" style="endArrow=none;dashed=1;html=1;rounded=0;exitX=1;exitY=0.5;exitDx=0;exitDy=0;entryX=0;entryY=0.5;entryDx=0;entryDy=0;startArrow=open;startFill=0;" edge="1" parent="1" source="Sz9_V8I0TWF33BEzIcY6-34" target="Sz9_V8I0TWF33BEzIcY6-48">
          <mxGeometry width="50" height="50" relative="1" as="geometry">
            <mxPoint x="735" y="559" as="sourcePoint" />
            <mxPoint x="785" y="509" as="targetPoint" />
          </mxGeometry>
        </mxCell>
        <mxCell id="Sz9_V8I0TWF33BEzIcY6-50" value="kopiert" style="text;html=1;align=center;verticalAlign=middle;resizable=0;points=[];autosize=1;strokeColor=none;fillColor=none;" vertex="1" parent="1">
          <mxGeometry x="335" y="557" width="60" height="30" as="geometry" />
        </mxCell>
        <mxCell id="Sz9_V8I0TWF33BEzIcY6-51" value="" style="endArrow=none;html=1;rounded=0;exitX=0.5;exitY=1;exitDx=0;exitDy=0;entryX=0.5;entryY=0;entryDx=0;entryDy=0;" edge="1" parent="1" source="Sz9_V8I0TWF33BEzIcY6-48" target="Sz9_V8I0TWF33BEzIcY6-47">
          <mxGeometry width="50" height="50" relative="1" as="geometry">
            <mxPoint x="735" y="559" as="sourcePoint" />
            <mxPoint x="785" y="509" as="targetPoint" />
          </mxGeometry>
        </mxCell>
        <mxCell id="Sz9_V8I0TWF33BEzIcY6-52" value="0..n" style="text;html=1;align=center;verticalAlign=middle;resizable=0;points=[];autosize=1;strokeColor=none;fillColor=none;" vertex="1" parent="1">
          <mxGeometry x="445" y="669" width="40" height="30" as="geometry" />
        </mxCell>
        <mxCell id="Sz9_V8I0TWF33BEzIcY6-53" value="0..n" style="text;html=1;align=center;verticalAlign=middle;resizable=0;points=[];autosize=1;strokeColor=none;fillColor=none;" vertex="1" parent="1">
          <mxGeometry x="445" y="609" width="40" height="30" as="geometry" />
        </mxCell>
        <mxCell id="Sz9_V8I0TWF33BEzIcY6-54" value="" style="endArrow=open;dashed=1;html=1;rounded=0;exitX=0.75;exitY=0;exitDx=0;exitDy=0;entryX=0.25;entryY=1;entryDx=0;entryDy=0;edgeStyle=orthogonalEdgeStyle;endFill=0;" edge="1" parent="1" source="Sz9_V8I0TWF33BEzIcY6-34" target="Sz9_V8I0TWF33BEzIcY6-17">
          <mxGeometry width="50" height="50" relative="1" as="geometry">
            <mxPoint x="735" y="559" as="sourcePoint" />
            <mxPoint x="785" y="509" as="targetPoint" />
          </mxGeometry>
        </mxCell>
        <mxCell id="Sz9_V8I0TWF33BEzIcY6-55" value="RÃ¼ckmeldung_Markierung" style="text;html=1;align=center;verticalAlign=middle;resizable=0;points=[];autosize=1;strokeColor=none;fillColor=none;" vertex="1" parent="1">
          <mxGeometry x="305" y="489" width="160" height="30" as="geometry" />
        </mxCell>
        <mxCell id="Sz9_V8I0TWF33BEzIcY6-56" value="0..n" style="text;html=1;align=center;verticalAlign=middle;resizable=0;points=[];autosize=1;strokeColor=none;fillColor=none;" vertex="1" parent="1">
          <mxGeometry x="235" y="537" width="40" height="30" as="geometry" />
        </mxCell>
        <mxCell id="Sz9_V8I0TWF33BEzIcY6-57" value="1..n" style="text;html=1;align=center;verticalAlign=middle;resizable=0;points=[];autosize=1;strokeColor=none;fillColor=none;" vertex="1" parent="1">
          <mxGeometry x="235" y="479" width="40" height="30" as="geometry" />
        </mxCell>
      </root>
    </mxGraphModel>
  </diagram>
</mxfile>
